<?xml version="1.0" encoding="utf-8"?>
<!-- Generator: Adobe Illustrator 19.2.1, SVG Export Plug-In . SVG Version: 6.00 Build 0)  -->
<svg version="1.1" id="icon__96x96__search" xmlns="http://www.w3.org/2000/svg" xmlns:xlink="http://www.w3.org/1999/xlink"
	 x="0px" y="0px" width="96px" height="96px" viewBox="0 0 96 96" style="enable-background:new 0 0 96 96;" xml:space="preserve">
<path d="M93.5,80.8L63.1,50.4c7.3-12.9,5.5-29.5-5.5-40.5C44.4-3.3,23-3.3,9.9,9.9s-13.2,34.6,0,47.7c10.9,11,27.6,12.8,40.5,5.5
	l30.4,30.4c3,3,7.6,3.3,10.3,0.7l3.2-3.2C96.8,88.4,96.5,83.8,93.5,80.8z M16.2,51.2c-9.7-9.7-9.7-25.3,0-35c9.7-9.7,25.3-9.7,35,0
	c9.6,9.7,9.6,25.3,0,35C41.6,60.9,25.9,60.9,16.2,51.2z"/>
</svg>
